<svg height="20" width="20" fill="white" id="Capa_1" enable-background="new 0 0 511.063 511.063" viewBox="0 0 511.063 511.063" xmlns="http://www.w3.org/2000/svg"><g><path d="m452.911 303.919 58.153-159.775-197.714-71.962-57.818 158.854-57.819-158.854-197.713 71.962 58.153 159.775 169.523-61.702 11.893 32.676-55.952 153.727 28.19 10.261 43.724-120.131 43.724 120.131 28.19-10.261-55.952-153.727 11.893-32.676zm-145.577-127.493 56.571 20.59-13.686 37.602-56.571-20.59zm71.075 68.452 13.686-37.602 56.571 20.59-13.686 37.602zm80.518-45.202-56.571-20.59 13.686-37.601 56.571 20.59zm-71.076-68.452-13.686 37.601-56.571-20.59 13.686-37.601zm-194.382 17.011-56.571 20.59-13.686-37.601 56.571-20.59zm-98.447-6.751 13.686 37.601-56.571 20.59-13.686-37.601zm-32.625 86.382 56.571-20.59 13.686 37.602-56.571 20.59zm98.448 6.751-13.686-37.602 56.571-20.59 13.686 37.602z"/></g></svg>