<svg width="16" height="16" viewBox="0 0 512 512" xmlns="http://www.w3.org/2000/svg"><path d="m452 69.785156v-69.785156h-151c-17.902344 0-33.996094 7.882812-45 20.355469-11.003906-12.472657-27.097656-20.355469-45-20.355469h-151v69.785156h-60v442.214844l82.214844-82.214844h429.785156v-360zm-211 218.070313c-8.832031-5.121094-19.074219-8.070313-30-8.070313h-121v-30h121c16.542969 0 30 13.460938 30 30zm-151 21.929687h121c16.542969 0 30 13.460938 30 30h-151zm332-30h-121c-10.925781 0-21.167969 2.949219-30 8.070313v-8.070313c0-16.539062 13.457031-30 30-30h121zm0 30v30h-151c0-16.539062 13.457031-30 30-30zm-121-279.785156h121v189.785156h-121c-10.925781 0-21.167969 2.949219-30 8.070313v-167.855469c0-16.542969 13.457031-30 30-30zm-90 0c16.542969 0 30 13.457031 30 30v167.855469c-8.832031-5.121094-19.074219-8.070313-30-8.070313h-121v-189.785156zm271 369.785156h-412.214844l-39.785156 39.789063v-339.789063h30v270h392v-270h30zm0 0"/></svg>